<?xml version="1.0" encoding="utf-8"?>
<!-- Generator: Adobe Illustrator 15.1.0, SVG Export Plug-In . SVG Version: 6.00 Build 0)  -->
<!DOCTYPE svg PUBLIC "-//W3C//DTD SVG 1.1//EN" "http://www.w3.org/Graphics/SVG/1.1/DTD/svg11.dtd">
<svg version="1.1" id="Layer_1" xmlns="http://www.w3.org/2000/svg" xmlns:xlink="http://www.w3.org/1999/xlink" x="0px" y="0px"
	 width="566.93px" height="195.965px" viewBox="0 0 566.93 195.965" enable-background="new 0 0 566.93 195.965"
	 xml:space="preserve">
<g>
	<g>
		<path fill="#FFFFFF" d="M165.203,447.554h15.534c3.175,0,6.123,0.453,8.73,1.247c2.721,0.793,4.989,2.041,6.917,3.741
			c1.928,1.701,3.515,3.855,4.536,6.463c1.134,2.608,1.587,5.67,1.587,9.298c0,3.401-0.567,6.351-1.701,8.845
			c-1.134,2.494-2.608,4.648-4.536,6.351c-1.928,1.7-4.309,2.947-6.917,3.854c-2.721,0.795-5.556,1.247-8.73,1.247h-15.421
			L165.203,447.554L165.203,447.554z M180.17,480.322c4.082,0,7.256-1.021,9.411-3.176c2.155-2.154,3.289-5.103,3.289-8.845
			c0-1.928-0.227-3.628-0.794-5.103c-0.567-1.587-1.247-2.834-2.381-3.968c-1.021-1.136-2.381-1.929-3.969-2.495
			c-1.587-0.566-3.515-0.907-5.669-0.907h-5.669v24.604C174.501,480.322,180.17,480.322,180.17,480.322z"/>
		<path fill="#FFFFFF" d="M211.011,447.554h28.006v8.163h-18.708v7.938h14.513v7.822h-14.513v8.846h20.069v8.163h-29.367
			L211.011,447.554L211.011,447.554z"/>
		<path fill="#FFFFFF" d="M251.943,476.354c0.567,0.566,1.134,1.135,1.928,1.7c0.68,0.567,1.474,1.135,2.381,1.588
			s1.814,0.907,2.834,1.247c1.02,0.341,2.154,0.453,3.401,0.453c0.681,0,1.361-0.112,2.041-0.34
			c0.681-0.227,1.361-0.453,1.928-0.907c0.567-0.34,1.021-0.906,1.36-1.359c0.34-0.567,0.567-1.135,0.567-1.929
			c0-1.474-0.794-2.721-2.268-3.515c-1.474-0.794-3.855-1.701-7.03-2.495c-1.587-0.34-2.948-0.906-4.309-1.587
			s-2.495-1.587-3.402-2.494c-1.021-1.021-1.701-2.153-2.268-3.401c-0.567-1.247-0.793-2.722-0.793-4.195
			c0-1.7,0.34-3.288,0.907-4.875c0.567-1.476,1.587-2.835,2.835-4.082c1.247-1.134,2.834-2.041,4.648-2.722s4.082-1.021,6.577-1.021
			c2.041,0,3.968,0.229,5.556,0.681c1.587,0.454,2.948,0.907,4.082,1.589c1.134,0.565,2.041,1.247,2.721,1.812
			c0.681,0.681,1.248,1.134,1.587,1.475l-5.329,5.896c-0.454-0.34-1.021-0.793-1.587-1.247c-0.567-0.453-1.247-0.794-2.041-1.247
			c-0.793-0.34-1.587-0.681-2.381-0.907c-0.907-0.227-1.814-0.34-2.835-0.34c-0.68,0-1.247,0.113-1.927,0.34
			c-0.681,0.228-1.248,0.453-1.701,0.794c-0.567,0.341-0.907,0.794-1.248,1.247c-0.34,0.453-0.454,1.021-0.454,1.475
			c0,1.36,0.794,2.495,2.268,3.401c1.474,0.906,3.515,1.587,6.123,2.154c1.474,0.34,2.948,0.906,4.422,1.474
			c1.474,0.682,2.721,1.475,3.855,2.494c1.134,1.021,2.041,2.27,2.721,3.742c0.68,1.473,1.021,3.288,1.021,5.442
			c0,1.813-0.454,3.515-1.247,5.103c-0.794,1.587-1.928,2.948-3.402,4.082c-1.361,1.134-3.062,2.041-4.989,2.721
			c-1.928,0.682-3.969,0.907-6.123,0.907c-2.041,0-3.968-0.227-5.556-0.565c-1.701-0.342-3.175-0.907-4.536-1.589
			c-1.361-0.681-2.608-1.359-3.628-2.153c-1.134-0.794-2.041-1.701-2.834-2.494L251.943,476.354z"/>
		<path fill="#FFFFFF" d="M286.866,447.554h9.298v41.045h-9.298V447.554z"/>
		<path fill="#FFFFFF" d="M327.346,466.035h15.76v17.802c-2.153,1.814-4.647,3.288-7.482,4.31c-2.834,1.021-6.122,1.474-9.751,1.474
			c-3.401,0-6.351-0.566-8.957-1.587c-2.608-1.021-4.876-2.495-6.69-4.422c-1.812-1.929-3.287-4.082-4.193-6.805
			c-0.908-2.721-1.475-5.556-1.475-8.616c0-3.062,0.565-5.896,1.588-8.505c1.02-2.606,2.494-4.876,4.309-6.803
			c1.927-1.928,4.081-3.516,6.689-4.536c2.606-1.134,5.441-1.7,8.616-1.7c3.742,0,7.03,0.681,9.751,2.041
			c2.836,1.36,5.104,3.288,7.03,5.782l-6.235,6.011c-1.361-1.589-2.723-2.836-4.31-3.855c-1.588-1.021-3.515-1.474-5.783-1.474
			c-1.927,0-3.515,0.34-4.987,1.021c-1.476,0.68-2.723,1.587-3.742,2.834c-1.021,1.248-1.814,2.608-2.381,4.195
			c-0.567,1.588-0.795,3.288-0.795,5.103c0,1.929,0.342,3.742,0.907,5.329c0.567,1.588,1.474,2.948,2.606,4.082
			c1.136,1.134,2.383,2.041,3.855,2.608c1.475,0.565,3.176,0.905,4.877,0.905c1.586,0,3.174-0.227,4.534-0.565
			s2.606-1.021,3.628-1.928v-5.217h-7.256v-7.482L327.346,466.035L327.346,466.035z"/>
		<path fill="#FFFFFF" d="M352.744,447.554h8.844l17.803,26.646v-26.646h9.184v41.045h-8.391L362.041,461.5v27.099h-9.184v-41.045
			H352.744L352.744,447.554z"/>
		<path fill="#FFFFFF" d="M399.005,447.554h13.946c2.154,0,3.969,0.228,5.557,0.793c1.587,0.567,2.834,1.247,3.854,2.269
			c1.021,0.907,1.813,2.041,2.268,3.288c0.567,1.248,0.794,2.607,0.794,4.082c0,1.36-0.227,2.495-0.68,3.516
			c-0.454,1.021-1.021,1.928-1.701,2.721c-0.681,0.794-1.36,1.361-2.268,1.814c-0.794,0.453-1.476,0.681-2.041,0.794
			c0.794,0.113,1.701,0.34,2.721,0.794c1.021,0.34,2.041,1.02,2.948,1.7c0.907,0.794,1.701,1.813,2.268,3.062
			c0.567,1.247,0.907,2.835,0.907,4.648c0,2.269-0.453,4.082-1.247,5.557s-1.928,2.607-3.288,3.516
			c-1.359,0.907-2.948,1.587-4.876,1.928c-1.927,0.34-3.854,0.565-6.009,0.565h-13.153V447.554L399.005,447.554z M412.045,464.675
			c0.906,0,1.813-0.113,2.721-0.341c0.907-0.227,1.701-0.566,2.494-1.021c0.794-0.452,1.361-1.134,1.814-1.927
			c0.454-0.794,0.681-1.701,0.681-2.835c0-1.247-0.227-2.268-0.681-2.948c-0.453-0.68-1.021-1.359-1.814-1.813
			c-0.793-0.453-1.587-0.68-2.494-0.906c-0.906-0.114-1.813-0.228-2.721-0.228h-7.257v12.02H412.045z M411.931,483.497
			c1.021,0,2.154-0.114,3.289-0.229c1.134-0.112,2.154-0.452,3.175-0.906c0.906-0.453,1.7-1.135,2.382-2.04
			c0.565-0.907,0.906-2.041,0.906-3.629c0-1.475-0.341-2.607-0.906-3.516c-0.567-0.907-1.361-1.588-2.269-2.153
			c-0.907-0.567-1.928-0.907-3.062-1.021c-1.135-0.227-2.154-0.227-3.175-0.227h-7.483v13.72L411.931,483.497L411.931,483.497z"/>
		<path fill="#FFFFFF" d="M455.585,489.619c-2.948,0-5.67-0.566-8.277-1.7c-2.493-1.134-4.763-2.608-6.688-4.649
			c-1.928-1.928-3.402-4.194-4.423-6.803c-1.021-2.607-1.587-5.441-1.587-8.391s0.565-5.783,1.587-8.392
			c1.021-2.607,2.495-4.876,4.423-6.803c1.812-1.928,4.081-3.516,6.688-4.648c2.607-1.135,5.329-1.7,8.277-1.7
			c2.947,0,5.669,0.565,8.277,1.7c2.606,1.134,4.762,2.607,6.688,4.648c1.928,1.927,3.401,4.195,4.422,6.803
			c1.021,2.608,1.588,5.442,1.588,8.392s-0.566,5.782-1.588,8.391c-1.021,2.607-2.494,4.875-4.422,6.803
			c-1.928,1.929-4.082,3.517-6.688,4.649C461.367,489.053,458.533,489.619,455.585,489.619z M455.585,484.062
			c2.268,0,4.309-0.452,6.122-1.246c1.814-0.907,3.402-2.041,4.649-3.516c1.246-1.475,2.268-3.175,2.947-5.103
			c0.681-1.929,1.021-3.97,1.021-6.123c0-2.269-0.341-4.31-1.021-6.236c-0.681-1.928-1.701-3.628-2.947-5.103
			c-1.247-1.475-2.835-2.607-4.649-3.516c-1.813-0.794-3.854-1.247-6.122-1.247s-4.309,0.453-6.123,1.247
			c-1.813,0.794-3.401,2.041-4.647,3.516c-1.248,1.475-2.27,3.175-2.948,5.103c-0.682,1.928-1.021,4.082-1.021,6.236
			c0,2.153,0.34,4.194,1.021,6.123c0.68,1.928,1.7,3.628,2.948,5.103c1.246,1.475,2.834,2.607,4.647,3.516
			C451.39,483.61,453.317,484.062,455.585,484.062z"/>
		<path fill="#FFFFFF" d="M504.907,489.619c-2.947,0-5.669-0.566-8.276-1.7c-2.495-1.134-4.763-2.608-6.689-4.649
			c-1.929-1.928-3.401-4.194-4.423-6.803c-1.021-2.607-1.587-5.441-1.587-8.391s0.566-5.783,1.587-8.392
			c1.021-2.607,2.494-4.876,4.423-6.803c1.813-1.928,4.082-3.516,6.689-4.648c2.607-1.135,5.329-1.7,8.276-1.7
			c2.948,0,5.67,0.565,8.276,1.7c2.608,1.134,4.764,2.607,6.69,4.648c1.927,1.927,3.401,4.195,4.422,6.803
			c1.021,2.608,1.587,5.442,1.587,8.392s-0.565,5.782-1.587,8.391c-1.021,2.607-2.495,4.875-4.422,6.803
			c-1.928,1.929-4.082,3.517-6.69,4.649C510.69,489.053,507.855,489.619,504.907,489.619z M504.907,484.062
			c2.269,0,4.309-0.452,6.123-1.246c1.813-0.907,3.4-2.041,4.648-3.516c1.247-1.475,2.269-3.175,2.947-5.103
			c0.681-1.929,1.021-3.97,1.021-6.123c0-2.269-0.341-4.31-1.021-6.236c-0.68-1.928-1.7-3.628-2.947-5.103
			c-1.248-1.475-2.835-2.607-4.648-3.516c-1.814-0.794-3.854-1.247-6.123-1.247s-4.31,0.453-6.122,1.247
			c-1.814,0.794-3.402,2.041-4.649,3.516s-2.268,3.175-2.947,5.103c-0.681,1.928-1.021,4.082-1.021,6.236
			c0,2.153,0.341,4.194,1.021,6.123c0.681,1.928,1.7,3.628,2.947,5.103s2.835,2.607,4.649,3.516
			C500.712,483.61,502.64,484.062,504.907,484.062z"/>
		<path fill="#FFFFFF" d="M535.295,447.554h5.783v18.596l17.121-18.596h6.803l-15.193,16.667l17.121,24.266H559.9l-14.061-20.069
			l-4.648,4.989v15.08h-5.782v-40.933H535.295L535.295,447.554z"/>
	</g>
	<rect y="389.16" fill="#FFFFFF" width="30.728" height="92.182"/>
	<rect x="96.038" y="389.16" fill="#FFFFFF" width="30.728" height="92.182"/>
	<path fill="#FFFFFF" d="M57.6,511.503c-15.307-2.722-26.873-16.101-26.873-32.088s11.679-29.367,26.873-32.089v-30.954
		C25.398,419.207,0,446.419,0,479.415c0,32.995,25.398,60.208,57.6,63.042V511.503z"/>
	<path fill="#FFFFFF" d="M69.166,416.259v30.954c15.307,2.722,26.873,16.102,26.873,32.089S84.36,508.668,69.166,511.39v30.954
		c32.202-2.947,57.6-30.047,57.6-63.043C126.766,446.306,101.367,419.207,69.166,416.259z"/>
	<g>
		<path fill="#FFFFFF" d="M165.317,500.277h9.638c1.587,0,2.948,0.228,4.082,0.566c1.134,0.34,2.041,0.907,2.721,1.475
			c0.68,0.566,1.247,1.36,1.474,2.153c0.227,0.794,0.454,1.701,0.454,2.495c0,0.793-0.113,1.587-0.454,2.154
			c-0.34,0.68-0.68,1.134-1.02,1.587c-0.454,0.454-0.794,0.794-1.248,1.021c-0.454,0.228-0.793,0.454-1.134,0.454
			c0.454,0.113,0.907,0.341,1.587,0.566c0.567,0.227,1.247,0.681,1.701,1.134c0.567,0.454,1.021,1.134,1.361,1.928
			s0.567,1.701,0.567,2.723c0,1.359-0.227,2.494-0.68,3.4c-0.454,0.907-1.134,1.7-2.041,2.269c-0.907,0.566-1.928,1.021-3.175,1.247
			c-1.248,0.227-2.608,0.454-4.195,0.454h-9.638V500.277L165.317,500.277z M174.388,510.482c0.454,0,0.907,0,1.247-0.113
			c0.454-0.113,0.794-0.228,1.134-0.454c0.34-0.228,0.567-0.566,0.794-0.906c0.227-0.341,0.34-0.794,0.34-1.36
			s-0.113-1.021-0.34-1.36c-0.227-0.34-0.454-0.681-0.794-0.907s-0.68-0.34-1.134-0.453c-0.454-0.112-0.793-0.112-1.247-0.112
			h-3.402v5.781h3.402V510.482z M174.728,521.367c0.454,0,0.907,0,1.361-0.113c0.567-0.113,1.021-0.227,1.474-0.453
			c0.453-0.226,0.793-0.566,1.134-1.021c0.34-0.454,0.454-1.021,0.454-1.814c0-0.681-0.113-1.247-0.454-1.7
			c-0.34-0.453-0.68-0.794-1.021-1.021c-0.34-0.229-0.907-0.454-1.474-0.454c-0.567-0.113-1.021-0.113-1.474-0.113h-3.742v6.689
			H174.728L174.728,521.367z"/>
		<path fill="#FFFFFF" d="M191.509,500.277h17.461v5.103h-11.679v4.989h9.071v4.875h-9.071v5.557h12.586v5.104h-18.369
			L191.509,500.277L191.509,500.277z"/>
		<path fill="#FFFFFF" d="M222.577,505.38H214.3v-5.103h22.451v5.103h-8.277v20.523h-5.783V505.38H222.577z"/>
		<path fill="#FFFFFF" d="M246.841,500.277h6.463l9.411,25.626h-6.463l-1.928-5.896h-9.071l-1.928,5.896h-6.123L246.841,500.277z
			 M252.964,515.472l-3.061-9.638l-3.175,9.638H252.964z"/>
	</g>
</g>
<g>
	<path fill="#5A5D64" d="M164.702,79.786h15.445c3.145,0,6.056,0.41,8.734,1.226c2.674,0.82,4.983,2.064,6.926,3.739
		c1.942,1.679,3.451,3.823,4.535,6.435c1.08,2.617,1.624,5.701,1.624,9.256c0,3.389-0.551,6.344-1.655,8.854
		c-1.103,2.516-2.627,4.621-4.566,6.314c-1.942,1.695-4.252,2.965-6.926,3.799c-2.678,0.84-5.589,1.256-8.734,1.256h-15.384
		L164.702,79.786L164.702,79.786z M179.595,112.453c4.083,0,7.232-1.072,9.438-3.217c2.207-2.146,3.31-5.1,3.31-8.857
		c0-1.881-0.257-3.584-0.766-5.118c-0.51-1.531-1.287-2.839-2.329-3.923c-1.042-1.079-2.36-1.919-3.953-2.513
		c-1.594-0.594-3.494-0.889-5.7-0.889h-5.639v24.514h5.639V112.453z"/>
	<path fill="#5A5D64" d="M210.455,79.786h27.948v8.09H219.71v7.968h14.525v7.846H219.71v8.826h20.042v8.148h-29.296V79.786H210.455z
		"/>
	<path fill="#5A5D64" d="M251.236,108.471c0.528,0.574,1.153,1.156,1.869,1.746c0.716,0.594,1.513,1.135,2.391,1.625
		c0.877,0.488,1.838,0.889,2.88,1.193c1.042,0.307,2.153,0.461,3.34,0.461c0.693,0,1.391-0.1,2.084-0.307
		c0.693-0.203,1.325-0.502,1.9-0.889c0.571-0.389,1.03-0.859,1.379-1.41c0.345-0.553,0.521-1.172,0.521-1.869
		c0-1.516-0.735-2.688-2.207-3.523c-1.471-0.84-3.8-1.668-6.987-2.482c-1.555-0.367-2.992-0.9-4.321-1.594
		c-1.33-0.693-2.475-1.533-3.433-2.514c-0.961-0.981-1.708-2.104-2.237-3.372c-0.533-1.264-0.797-2.673-0.797-4.229
		c0-1.717,0.307-3.33,0.919-4.843c0.613-1.513,1.544-2.85,2.789-4.014c1.245-1.165,2.796-2.084,4.658-2.759
		c1.858-0.674,4.053-1.01,6.588-1.01c2.084,0,3.923,0.213,5.516,0.644c1.594,0.429,2.954,0.942,4.076,1.532
		c1.123,0.594,2.042,1.207,2.758,1.839c0.716,0.636,1.256,1.134,1.624,1.501l-5.332,5.884c-0.448-0.368-0.969-0.767-1.563-1.194
		c-0.594-0.43-1.256-0.828-1.992-1.195c-0.736-0.368-1.544-0.674-2.421-0.92c-0.877-0.244-1.808-0.367-2.789-0.367
		c-0.655,0-1.298,0.104-1.93,0.306c-0.636,0.203-1.207,0.479-1.716,0.828c-0.509,0.349-0.919,0.758-1.226,1.226
		c-0.306,0.472-0.459,0.969-0.459,1.502c0,1.391,0.735,2.514,2.207,3.371c1.471,0.858,3.494,1.575,6.067,2.146
		c1.513,0.368,2.992,0.869,4.444,1.501c1.448,0.636,2.747,1.462,3.892,2.482c1.146,1.021,2.065,2.279,2.758,3.77
		c0.693,1.492,1.042,3.299,1.042,5.426c0,1.838-0.41,3.535-1.226,5.086c-0.82,1.557-1.931,2.904-3.34,4.045
		c-1.41,1.146-3.064,2.035-4.964,2.666c-1.9,0.633-3.953,0.951-6.16,0.951c-2.042,0-3.903-0.195-5.577-0.582
		c-1.678-0.393-3.187-0.9-4.536-1.533c-1.348-0.633-2.562-1.355-3.646-2.176c-1.084-0.814-2.015-1.654-2.789-2.514L251.236,108.471z
		"/>
	<path fill="#5A5D64" d="M286.048,79.786h9.254v40.88h-9.254V79.786z"/>
	<path fill="#5A5D64" d="M326.43,98.172h15.752v17.712c-2.127,1.84-4.607,3.262-7.447,4.26c-2.838,1-6.078,1.502-9.715,1.502
		c-3.352,0-6.342-0.521-8.979-1.562s-4.873-2.502-6.711-4.383c-1.84-1.881-3.237-4.125-4.198-6.74
		c-0.962-2.617-1.44-5.498-1.44-8.643c0-3.065,0.51-5.904,1.532-8.52c1.022-2.617,2.472-4.892,4.353-6.834
		c1.877-1.938,4.105-3.463,6.682-4.566c2.572-1.104,5.432-1.654,8.58-1.654c3.715,0,6.975,0.686,9.773,2.053
		c2.797,1.367,5.119,3.279,6.957,5.73l-6.252,5.945c-1.305-1.552-2.746-2.819-4.32-3.801c-1.574-0.979-3.506-1.471-5.791-1.471
		c-1.881,0-3.555,0.348-5.025,1.042c-1.473,0.696-2.717,1.636-3.738,2.819c-1.021,1.188-1.797,2.574-2.33,4.168
		c-0.531,1.593-0.797,3.29-0.797,5.086c0,1.961,0.307,3.738,0.92,5.332s1.471,2.953,2.574,4.076s2.396,1.992,3.893,2.604
		c1.494,0.613,3.113,0.92,4.871,0.92c1.637,0,3.127-0.195,4.477-0.582c1.348-0.387,2.555-1.012,3.615-1.869v-5.148h-7.232v-7.476
		H326.43z"/>
	<path fill="#5A5D64" d="M351.781,79.786h8.826l17.713,26.539V79.786h9.131v40.88h-8.395l-18.143-27.028v27.028h-9.133V79.786z"/>
	<path fill="#5A5D64" d="M397.912,79.786h13.854c2.121,0,3.961,0.276,5.516,0.828c1.551,0.552,2.838,1.298,3.861,2.237
		c1.02,0.941,1.789,2.045,2.299,3.31c0.51,1.269,0.766,2.616,0.766,4.045c0,1.306-0.236,2.494-0.705,3.556
		c-0.471,1.061-1.041,1.961-1.715,2.696c-0.676,0.735-1.41,1.329-2.207,1.777c-0.797,0.449-1.482,0.716-2.053,0.796
		c0.777,0.123,1.686,0.379,2.727,0.766c1.043,0.393,2.012,0.971,2.912,1.748c0.896,0.777,1.654,1.789,2.268,3.033
		c0.615,1.246,0.92,2.789,0.92,4.627c0,2.207-0.398,4.035-1.195,5.486s-1.881,2.627-3.248,3.523c-1.367,0.9-2.992,1.531-4.873,1.9
		c-1.881,0.367-3.881,0.551-6.006,0.551h-13.117v-40.88H397.912z M410.902,96.825c0.9,0,1.797-0.111,2.697-0.337
		c0.895-0.227,1.717-0.582,2.451-1.073c0.734-0.489,1.328-1.122,1.777-1.899c0.447-0.777,0.674-1.717,0.674-2.819
		c0-1.226-0.227-2.218-0.674-2.972c-0.449-0.756-1.043-1.35-1.777-1.778s-1.557-0.716-2.451-0.858
		c-0.9-0.142-1.797-0.214-2.697-0.214h-7.293v11.951H410.902z M410.723,115.58c1.061,0,2.164-0.062,3.309-0.186
		c1.143-0.121,2.195-0.404,3.158-0.857c0.957-0.447,1.746-1.109,2.359-1.992c0.611-0.877,0.918-2.092,0.918-3.646
		c0-1.471-0.295-2.654-0.889-3.555s-1.348-1.611-2.268-2.145c-0.92-0.529-1.932-0.889-3.035-1.072
		c-1.102-0.186-2.164-0.275-3.188-0.275h-7.477v13.729H410.723L410.723,115.58z"/>
	<path fill="#5A5D64" d="M454.322,121.709c-2.941,0-5.68-0.562-8.213-1.686c-2.535-1.123-4.742-2.654-6.619-4.598
		c-1.881-1.941-3.352-4.219-4.412-6.834c-1.062-2.611-1.594-5.412-1.594-8.396c0-2.984,0.531-5.773,1.594-8.367
		c1.061-2.593,2.521-4.86,4.381-6.804c1.859-1.941,4.064-3.469,6.619-4.596c2.557-1.123,5.303-1.686,8.244-1.686
		s5.689,0.562,8.244,1.686s4.77,2.654,6.65,4.596c1.877,1.943,3.352,4.211,4.41,6.804c1.062,2.593,1.596,5.386,1.596,8.367
		c0,2.984-0.533,5.785-1.596,8.396c-1.061,2.615-2.529,4.896-4.41,6.834c-1.883,1.941-4.102,3.475-6.65,4.598
		C460.012,121.145,457.264,121.709,454.322,121.709z M454.322,116.191c2.244,0,4.279-0.428,6.098-1.287
		c1.82-0.857,3.371-2.021,4.658-3.492s2.275-3.176,2.975-5.119c0.691-1.941,1.041-3.99,1.041-6.158c0-2.208-0.35-4.28-1.041-6.221
		c-0.697-1.941-1.688-3.646-2.975-5.118c-1.287-1.471-2.838-2.624-4.658-3.463c-1.818-0.835-3.85-1.256-6.098-1.256
		s-4.27,0.421-6.068,1.256c-1.795,0.839-3.34,1.992-4.627,3.463c-1.285,1.472-2.277,3.181-2.973,5.118
		c-0.693,1.941-1.041,4.016-1.041,6.221c0,2.168,0.348,4.221,1.041,6.158c0.693,1.943,1.688,3.648,2.973,5.119
		c1.287,1.471,2.832,2.635,4.627,3.492C450.051,115.764,452.074,116.191,454.322,116.191z"/>
	<path fill="#5A5D64" d="M503.512,121.709c-2.941,0-5.682-0.562-8.215-1.686c-2.535-1.123-4.74-2.654-6.617-4.598
		c-1.883-1.941-3.354-4.219-4.414-6.834c-1.061-2.611-1.592-5.412-1.592-8.396c0-2.984,0.531-5.773,1.592-8.367
		c1.062-2.593,2.521-4.86,4.383-6.804c1.857-1.941,4.062-3.469,6.619-4.596c2.555-1.123,5.303-1.686,8.244-1.686
		s5.688,0.562,8.242,1.686c2.557,1.123,4.77,2.654,6.65,4.596c1.877,1.943,3.352,4.211,4.412,6.804s1.594,5.386,1.594,8.367
		c0,2.984-0.531,5.785-1.594,8.396c-1.061,2.615-2.531,4.896-4.412,6.834c-1.881,1.941-4.1,3.475-6.65,4.598
		C509.203,121.145,506.453,121.709,503.512,121.709z M503.512,116.191c2.244,0,4.277-0.428,6.098-1.287
		c1.82-0.857,3.371-2.021,4.658-3.492s2.275-3.176,2.973-5.119c0.693-1.941,1.041-3.99,1.041-6.158c0-2.208-0.348-4.28-1.041-6.221
		c-0.697-1.941-1.686-3.646-2.973-5.118c-1.287-1.471-2.838-2.624-4.658-3.463c-1.818-0.835-3.85-1.256-6.098-1.256
		s-4.271,0.421-6.068,1.256c-1.797,0.839-3.34,1.992-4.627,3.463c-1.287,1.472-2.279,3.181-2.973,5.118
		c-0.693,1.941-1.041,4.016-1.041,6.221c0,2.168,0.348,4.221,1.041,6.158c0.691,1.943,1.686,3.648,2.973,5.119
		s2.83,2.635,4.627,3.492C499.24,115.764,501.268,116.191,503.512,116.191z"/>
	<path fill="#5A5D64" d="M533.818,79.786h5.824v18.571l17.1-18.571h6.74l-15.199,16.671l17.039,24.209h-7.049l-13.975-20.041
		l-4.656,5.025v15.016h-5.824V79.786L533.818,79.786z"/>
</g>
<linearGradient id="SVGID_1_" gradientUnits="userSpaceOnUse" x1="-76.9346" y1="-133.3247" x2="-76.9346" y2="-109.3218" gradientTransform="matrix(3.8306 0 0 3.8306 310.0136 532.2275)">
	<stop  offset="0" style="stop-color:#5A5E63"/>
	<stop  offset="1" style="stop-color:#45494C"/>
</linearGradient>
<rect x="-0.014" y="21.515" fill="url(#SVGID_1_)" width="30.645" height="91.946"/>
<linearGradient id="SVGID_2_" gradientUnits="userSpaceOnUse" x1="-51.9346" y1="-133.3247" x2="-51.9346" y2="-109.3218" gradientTransform="matrix(3.8306 0 0 3.8306 310.0136 532.2275)">
	<stop  offset="0" style="stop-color:#FB5C1D"/>
	<stop  offset="1" style="stop-color:#DD4C1F"/>
</linearGradient>
<rect x="95.751" y="21.515" fill="url(#SVGID_2_)" width="30.645" height="91.946"/>
<path fill="#6B7077" d="M57.445,143.555c-15.219-2.725-26.814-16.031-26.814-32.021c0-15.989,11.595-29.295,26.814-32.02V48.621
	C25.279,51.536-0.014,78.622-0.014,111.533c0,32.914,25.293,60,57.459,62.914V143.555z"/>
<linearGradient id="SVGID_3_" gradientUnits="userSpaceOnUse" x1="-55.4346" y1="-126.2485" x2="-55.4346" y2="-93.4004" gradientTransform="matrix(3.8306 0 0 3.8306 310.0136 532.2275)">
	<stop  offset="0" style="stop-color:#FF6631"/>
	<stop  offset="1" style="stop-color:#FB5C1D"/>
</linearGradient>
<path fill="url(#SVGID_3_)" d="M68.937,48.621v30.895c15.219,2.723,26.814,16.03,26.814,32.02c0,15.988-11.595,29.297-26.814,32.02
	v30.895c32.166-2.914,57.459-30,57.459-62.914C126.396,78.622,101.103,51.536,68.937,48.621z"/>
<g>
	<path fill="#A0A2A5" d="M164.894,132.311h9.576c1.586,0,2.923,0.186,4.022,0.557c1.095,0.371,1.992,0.861,2.681,1.475
		s1.188,1.322,1.494,2.125c0.307,0.807,0.459,1.641,0.459,2.51c0,0.816-0.149,1.541-0.44,2.164c-0.291,0.625-0.64,1.16-1.034,1.609
		c-0.398,0.447-0.816,0.797-1.264,1.053c-0.448,0.258-0.808,0.422-1.092,0.498c0.433,0.127,0.946,0.318,1.532,0.574
		c0.613,0.258,1.188,0.633,1.724,1.131s0.988,1.123,1.36,1.877c0.368,0.754,0.555,1.641,0.555,2.662c0,1.33-0.237,2.451-0.708,3.371
		c-0.475,0.92-1.138,1.674-1.992,2.26c-0.858,0.586-1.904,1.016-3.141,1.283c-1.237,0.27-2.624,0.402-4.156,0.402h-9.576V132.311
		L164.894,132.311z M173.934,142.539c0.433,0,0.862-0.049,1.283-0.152s0.793-0.262,1.111-0.479c0.318-0.217,0.583-0.51,0.786-0.881
		c0.203-0.369,0.306-0.824,0.306-1.361c0-0.559-0.104-1.025-0.306-1.396c-0.203-0.371-0.471-0.662-0.805-0.883
		c-0.33-0.217-0.708-0.371-1.13-0.459c-0.422-0.088-0.835-0.135-1.245-0.135h-3.409v5.746H173.934L173.934,142.539z
		 M174.278,153.418c0.406,0,0.87-0.031,1.379-0.096c0.51-0.064,0.985-0.211,1.417-0.441c0.433-0.229,0.797-0.559,1.092-0.994
		c0.291-0.434,0.44-1.035,0.44-1.801c0-0.689-0.142-1.25-0.421-1.686c-0.283-0.436-0.64-0.773-1.072-1.018
		c-0.433-0.24-0.904-0.404-1.417-0.498c-0.513-0.088-0.984-0.133-1.417-0.133h-3.754v6.664h3.753V153.418z"/>
	<path fill="#A0A2A5" d="M190.949,132.311h17.468v5.057h-11.684v4.979h9.079v4.904h-9.079v5.518h12.526v5.094h-18.31V132.311
		L190.949,132.311z"/>
	<path fill="#A0A2A5" d="M221.92,137.406h-8.274v-5.096h22.333v5.096h-8.236v20.455h-5.823V137.406L221.92,137.406z"/>
	<path fill="#A0A2A5" d="M246.137,132.311h6.397l9.347,25.551h-6.32L253.607,152h-9.002l-1.954,5.861h-6.052L246.137,132.311z
		 M252.228,147.52l-3.103-9.654l-3.179,9.654H252.228z"/>
</g>
</svg>
