<?xml version="1.0" encoding="utf-8"?>
<!-- Generator: Adobe Illustrator 16.0.0, SVG Export Plug-In . SVG Version: 6.00 Build 0)  -->
<!DOCTYPE svg PUBLIC "-//W3C//DTD SVG 1.1//EN" "http://www.w3.org/Graphics/SVG/1.1/DTD/svg11.dtd">
<svg version="1.1" id="Layer_1" xmlns="http://www.w3.org/2000/svg" xmlns:xlink="http://www.w3.org/1999/xlink" x="0px" y="0px"
	 width="566.93px" height="195.965px" viewBox="0 370.965 566.93 195.965" enable-background="new 0 370.965 566.93 195.965"
	 xml:space="preserve">
<g>
	<g>
		<path fill="#FFFFFF" d="M165.203,447.554h15.534c3.175,0,6.123,0.453,8.73,1.247c2.721,0.793,4.989,2.041,6.917,3.741
			c1.928,1.701,3.515,3.855,4.536,6.463c1.134,2.608,1.587,5.67,1.587,9.298c0,3.401-0.567,6.35-1.701,8.844
			c-1.134,2.495-2.608,4.649-4.536,6.351c-1.928,1.7-4.309,2.947-6.917,3.854c-2.721,0.794-5.556,1.247-8.73,1.247h-15.421V447.554
			L165.203,447.554z M180.17,480.322c4.082,0,7.256-1.021,9.411-3.176c2.155-2.154,3.289-5.102,3.289-8.844
			c0-1.928-0.227-3.628-0.794-5.103c-0.567-1.587-1.247-2.834-2.381-3.968c-1.021-1.135-2.381-1.928-3.969-2.495
			c-1.587-0.566-3.515-0.907-5.669-0.907h-5.669v24.605C174.501,480.322,180.17,480.322,180.17,480.322z"/>
		<path fill="#FFFFFF" d="M211.011,447.554h28.006v8.163h-18.708v7.938h14.513v7.823h-14.513v8.845h20.069v8.163h-29.367V447.554z"
			/>
		<path fill="#FFFFFF" d="M251.943,476.354c0.567,0.566,1.134,1.134,1.928,1.7c0.68,0.567,1.474,1.134,2.381,1.588
			c0.907,0.453,1.814,0.907,2.834,1.247s2.154,0.453,3.401,0.453c0.681,0,1.361-0.113,2.041-0.34
			c0.681-0.227,1.361-0.453,1.928-0.907c0.567-0.34,1.021-0.907,1.36-1.36c0.34-0.567,0.567-1.134,0.567-1.928
			c0-1.474-0.794-2.721-2.268-3.515s-3.855-1.701-7.03-2.495c-1.587-0.34-2.948-0.906-4.309-1.587
			c-1.361-0.681-2.495-1.587-3.402-2.494c-1.021-1.021-1.701-2.154-2.268-3.402c-0.567-1.247-0.793-2.721-0.793-4.195
			c0-1.7,0.34-3.288,0.907-4.875c0.567-1.475,1.587-2.835,2.835-4.082c1.247-1.134,2.834-2.041,4.648-2.722
			c1.814-0.68,4.082-1.021,6.577-1.021c2.041,0,3.968,0.228,5.556,0.681c1.587,0.454,2.948,0.907,4.082,1.588
			c1.134,0.566,2.041,1.247,2.721,1.813c0.681,0.681,1.248,1.134,1.587,1.475l-5.329,5.896c-0.454-0.34-1.021-0.793-1.587-1.247
			c-0.567-0.453-1.247-0.794-2.041-1.247c-0.793-0.34-1.587-0.681-2.381-0.907c-0.907-0.227-1.814-0.34-2.835-0.34
			c-0.68,0-1.247,0.113-1.927,0.34c-0.681,0.227-1.248,0.453-1.701,0.794c-0.567,0.34-0.907,0.794-1.248,1.247
			c-0.34,0.453-0.454,1.021-0.454,1.474c0,1.361,0.794,2.495,2.268,3.402c1.474,0.906,3.515,1.587,6.123,2.154
			c1.474,0.34,2.948,0.906,4.422,1.474c1.474,0.681,2.721,1.474,3.855,2.494s2.041,2.269,2.721,3.742s1.021,3.288,1.021,5.442
			c0,1.814-0.454,3.515-1.247,5.103c-0.794,1.587-1.928,2.948-3.402,4.082c-1.361,1.134-3.062,2.041-4.989,2.721
			c-1.928,0.681-3.969,0.907-6.123,0.907c-2.041,0-3.968-0.227-5.556-0.566c-1.701-0.341-3.175-0.907-4.536-1.588
			s-2.608-1.36-3.628-2.154c-1.134-0.794-2.041-1.701-2.834-2.494L251.943,476.354z"/>
		<path fill="#FFFFFF" d="M286.866,447.554h9.298v41.045h-9.298V447.554z"/>
		<path fill="#FFFFFF" d="M327.346,466.035h15.76v17.802c-2.154,1.814-4.648,3.288-7.483,4.309
			c-2.834,1.021-6.122,1.474-9.751,1.474c-3.401,0-6.35-0.566-8.957-1.587c-2.608-1.021-4.876-2.495-6.69-4.422
			c-1.813-1.928-3.288-4.082-4.194-6.804c-0.908-2.721-1.475-5.556-1.475-8.617s0.566-5.896,1.588-8.504
			c1.02-2.607,2.494-4.876,4.309-6.803c1.927-1.928,4.081-3.516,6.689-4.536c2.607-1.134,5.442-1.7,8.617-1.7
			c3.742,0,7.03,0.68,9.751,2.041c2.835,1.36,5.103,3.288,7.03,5.782l-6.236,6.01c-1.36-1.588-2.722-2.835-4.309-3.855
			c-1.588-1.021-3.515-1.474-5.783-1.474c-1.927,0-3.515,0.34-4.988,1.021c-1.475,0.68-2.722,1.587-3.742,2.834
			c-1.021,1.248-1.814,2.608-2.381,4.195c-0.567,1.588-0.794,3.288-0.794,5.103c0,1.928,0.341,3.742,0.907,5.329
			c0.567,1.588,1.474,2.948,2.607,4.082c1.135,1.134,2.382,2.041,3.855,2.608c1.475,0.566,3.175,0.906,4.876,0.906
			c1.587,0,3.175-0.227,4.535-0.566s2.607-1.021,3.628-1.928v-5.216h-7.256v-7.483H327.346z"/>
		<path fill="#FFFFFF" d="M352.744,447.554h8.844l17.802,26.646v-26.646h9.184v41.045h-8.391L362.041,461.5v27.099h-9.184v-41.045
			H352.744z"/>
		<path fill="#FFFFFF" d="M399.005,447.554h13.946c2.154,0,3.969,0.227,5.557,0.793c1.587,0.567,2.834,1.247,3.854,2.268
			c1.021,0.907,1.814,2.041,2.268,3.288c0.567,1.248,0.794,2.608,0.794,4.082c0,1.361-0.227,2.495-0.68,3.516
			c-0.454,1.021-1.021,1.928-1.701,2.721c-0.681,0.794-1.36,1.361-2.268,1.814c-0.794,0.453-1.475,0.681-2.041,0.794
			c0.794,0.113,1.701,0.34,2.721,0.794c1.021,0.34,2.041,1.02,2.948,1.7c0.907,0.794,1.701,1.814,2.268,3.062
			c0.567,1.247,0.907,2.835,0.907,4.648c0,2.269-0.453,4.082-1.247,5.557c-0.794,1.474-1.928,2.607-3.288,3.515
			s-2.948,1.587-4.876,1.928c-1.927,0.34-3.854,0.566-6.009,0.566h-13.153V447.554z M412.045,464.675
			c0.906,0,1.813-0.113,2.721-0.341c0.907-0.227,1.701-0.566,2.494-1.021c0.794-0.453,1.361-1.134,1.814-1.927
			c0.454-0.794,0.681-1.701,0.681-2.835c0-1.247-0.227-2.268-0.681-2.948c-0.453-0.68-1.021-1.36-1.814-1.814
			c-0.793-0.453-1.587-0.68-2.494-0.906c-0.907-0.114-1.814-0.228-2.721-0.228h-7.257v12.02H412.045z M411.931,483.497
			c1.021,0,2.154-0.114,3.289-0.228c1.134-0.113,2.154-0.453,3.175-0.907c0.906-0.453,1.7-1.134,2.381-2.04
			c0.566-0.907,0.907-2.041,0.907-3.629c0-1.474-0.341-2.607-0.907-3.515c-0.567-0.907-1.361-1.588-2.268-2.154
			c-0.907-0.567-1.928-0.907-3.062-1.021c-1.134-0.227-2.154-0.227-3.175-0.227h-7.483v13.72H411.931z"/>
		<path fill="#FFFFFF" d="M455.585,489.619c-2.948,0-5.67-0.566-8.277-1.7c-2.494-1.134-4.763-2.608-6.689-4.649
			c-1.928-1.928-3.402-4.195-4.423-6.803c-1.021-2.608-1.587-5.442-1.587-8.391s0.566-5.783,1.587-8.391s2.495-4.876,4.423-6.803
			c1.813-1.928,4.081-3.516,6.689-4.649c2.607-1.134,5.329-1.7,8.277-1.7c2.947,0,5.669,0.566,8.277,1.7
			c2.607,1.134,4.762,2.608,6.689,4.649c1.928,1.927,3.401,4.195,4.422,6.803s1.588,5.442,1.588,8.391s-0.567,5.782-1.588,8.391
			c-1.021,2.607-2.494,4.875-4.422,6.803s-4.082,3.516-6.689,4.649C461.367,489.053,458.533,489.619,455.585,489.619z
			 M455.585,484.063c2.268,0,4.309-0.453,6.122-1.247c1.814-0.907,3.402-2.041,4.649-3.515c1.247-1.475,2.268-3.175,2.948-5.103
			c0.68-1.928,1.021-3.969,1.021-6.123c0-2.268-0.341-4.309-1.021-6.236c-0.681-1.928-1.701-3.628-2.948-5.103
			c-1.247-1.474-2.835-2.607-4.649-3.515c-1.813-0.794-3.854-1.247-6.122-1.247s-4.309,0.453-6.123,1.247s-3.401,2.041-4.648,3.515
			c-1.248,1.475-2.269,3.175-2.948,5.103c-0.681,1.928-1.021,4.082-1.021,6.236s0.34,4.195,1.021,6.123
			c0.68,1.928,1.7,3.628,2.948,5.103c1.247,1.474,2.834,2.607,4.648,3.515C451.39,483.61,453.317,484.063,455.585,484.063z"/>
		<path fill="#FFFFFF" d="M504.907,489.619c-2.947,0-5.669-0.566-8.276-1.7c-2.495-1.134-4.763-2.608-6.69-4.649
			c-1.928-1.928-3.401-4.195-4.422-6.803c-1.021-2.608-1.587-5.442-1.587-8.391s0.566-5.783,1.587-8.391s2.494-4.876,4.422-6.803
			c1.814-1.928,4.082-3.516,6.69-4.649c2.607-1.134,5.329-1.7,8.276-1.7c2.948,0,5.67,0.566,8.277,1.7
			c2.608,1.134,4.763,2.608,6.69,4.649c1.927,1.927,3.401,4.195,4.422,6.803s1.587,5.442,1.587,8.391s-0.566,5.782-1.587,8.391
			c-1.021,2.607-2.495,4.875-4.422,6.803c-1.928,1.928-4.082,3.516-6.69,4.649C510.69,489.053,507.855,489.619,504.907,489.619z
			 M504.907,484.063c2.269,0,4.309-0.453,6.123-1.247c1.814-0.907,3.401-2.041,4.649-3.515c1.247-1.475,2.268-3.175,2.947-5.103
			c0.681-1.928,1.021-3.969,1.021-6.123c0-2.268-0.34-4.309-1.021-6.236c-0.68-1.928-1.7-3.628-2.947-5.103
			c-1.248-1.474-2.835-2.607-4.649-3.515c-1.814-0.794-3.854-1.247-6.123-1.247c-2.268,0-4.309,0.453-6.122,1.247
			c-1.814,0.794-3.402,2.041-4.649,3.515c-1.247,1.475-2.268,3.175-2.948,5.103c-0.68,1.928-1.021,4.082-1.021,6.236
			s0.341,4.195,1.021,6.123c0.681,1.928,1.701,3.628,2.948,5.103c1.247,1.474,2.835,2.607,4.649,3.515
			C500.712,483.61,502.64,484.063,504.907,484.063z"/>
		<path fill="#FFFFFF" d="M535.295,447.554h5.783v18.595l17.121-18.595h6.803l-15.193,16.667l17.121,24.265h-7.03l-14.06-20.069
			l-4.648,4.989v15.08h-5.783v-40.932H535.295z"/>
	</g>
	<rect y="389.16" fill="#FFFFFF" width="30.728" height="92.182"/>
	<rect x="96.038" y="389.16" fill="#FFFFFF" width="30.728" height="92.182"/>
	<path fill="#FFFFFF" d="M57.6,511.503c-15.307-2.722-26.873-16.101-26.873-32.088s11.679-29.367,26.873-32.089v-30.954
		C25.398,419.207,0,446.419,0,479.415c0,32.995,25.398,60.208,57.6,63.042V511.503z"/>
	<path fill="#FFFFFF" d="M69.166,416.259v30.954c15.307,2.722,26.873,16.101,26.873,32.089c0,15.987-11.679,29.366-26.873,32.088
		v30.954c32.202-2.948,57.6-30.047,57.6-63.043C126.766,446.306,101.367,419.207,69.166,416.259z"/>
	<g>
		<path fill="#FFFFFF" d="M165.317,500.277h9.638c1.587,0,2.948,0.228,4.082,0.567c1.134,0.34,2.041,0.907,2.721,1.474
			c0.68,0.567,1.247,1.361,1.474,2.154c0.227,0.794,0.454,1.701,0.454,2.495c0,0.793-0.113,1.587-0.454,2.154
			c-0.34,0.68-0.68,1.134-1.02,1.587c-0.454,0.454-0.794,0.794-1.248,1.021s-0.793,0.454-1.134,0.454
			c0.454,0.113,0.907,0.34,1.587,0.566c0.567,0.227,1.247,0.681,1.701,1.134c0.567,0.454,1.021,1.134,1.361,1.928
			c0.34,0.794,0.567,1.701,0.567,2.722c0,1.36-0.227,2.494-0.68,3.401c-0.454,0.907-1.134,1.7-2.041,2.268
			c-0.907,0.567-1.928,1.021-3.175,1.247c-1.248,0.227-2.608,0.454-4.195,0.454h-9.638V500.277L165.317,500.277z M174.388,510.482
			c0.454,0,0.907,0,1.247-0.113c0.454-0.113,0.794-0.227,1.134-0.454c0.34-0.227,0.567-0.566,0.794-0.906
			c0.227-0.341,0.34-0.794,0.34-1.361c0-0.566-0.113-1.021-0.34-1.36c-0.227-0.34-0.454-0.681-0.794-0.907
			c-0.34-0.227-0.68-0.34-1.134-0.453s-0.793-0.113-1.247-0.113h-3.402v5.782h3.402V510.482z M174.728,521.367
			c0.454,0,0.907,0,1.361-0.113c0.567-0.113,1.021-0.227,1.474-0.453s0.793-0.567,1.134-1.021c0.34-0.454,0.454-1.021,0.454-1.814
			c0-0.681-0.113-1.247-0.454-1.7c-0.34-0.454-0.68-0.794-1.021-1.021c-0.34-0.228-0.907-0.454-1.474-0.454
			c-0.567-0.113-1.021-0.113-1.474-0.113h-3.742v6.689H174.728z"/>
		<path fill="#FFFFFF" d="M191.509,500.277h17.461v5.103h-11.679v4.989h9.071v4.875h-9.071v5.557h12.586v5.103h-18.369V500.277
			L191.509,500.277z"/>
		<path fill="#FFFFFF" d="M222.577,505.38h-8.277v-5.103h22.451v5.103h-8.277v20.523h-5.783V505.38H222.577z"/>
		<path fill="#FFFFFF" d="M246.841,500.277h6.463l9.411,25.626h-6.463l-1.928-5.896h-9.071l-1.928,5.896h-6.123L246.841,500.277z
			 M252.964,515.472l-3.061-9.638l-3.175,9.638H252.964z"/>
	</g>
</g>
</svg>
