<?xml version="1.0" encoding="utf-8"?>
<!-- Generator: Adobe Illustrator 15.1.0, SVG Export Plug-In . SVG Version: 6.00 Build 0)  -->
<!DOCTYPE svg PUBLIC "-//W3C//DTD SVG 1.1//EN" "http://www.w3.org/Graphics/SVG/1.1/DTD/svg11.dtd">
<svg version="1.1" id="Capa_1" xmlns="http://www.w3.org/2000/svg" xmlns:xlink="http://www.w3.org/1999/xlink" x="0px" y="0px"
	 width="177.273px" height="62.16px" viewBox="0 0 177.273 62.16" enable-background="new 0 0 177.273 62.16" xml:space="preserve">
<g>
	<path fill="#FFFFFF" d="M67.515,38.768V17.804h9.238c4.399,0,6.82,2.987,6.82,6.57c0,3.55-2.451,6.536-6.82,6.536h-5.562v7.857
		H67.515L67.515,38.768z M79.803,24.375c0-2.012-1.479-3.332-3.553-3.332H71.19v6.631h5.061
		C78.325,27.673,79.803,26.353,79.803,24.375z"/>
	<path fill="#FFFFFF" d="M86.655,38.768V17.804h3.678v20.963H86.655L86.655,38.768z"/>
	<path fill="#FFFFFF" d="M99.792,38.768V21.042h-6.35v-3.238h16.374v3.238h-6.35v17.726H99.792z"/>
	<path fill="#FFFFFF" d="M111.232,28.301c0-6.474,4.81-10.842,10.999-10.842c4.212,0,6.853,2.168,8.393,4.683l-3.11,1.634
		c-1.007-1.76-3.049-3.048-5.28-3.048c-4.147,0-7.229,3.144-7.229,7.573c0,4.37,3.079,7.575,7.229,7.575
		c2.231,0,4.273-1.319,5.28-3.05l3.143,1.572c-1.603,2.514-4.211,4.746-8.423,4.746C116.041,39.145,111.232,34.746,111.232,28.301z"
		/>
	<path fill="#FFFFFF" d="M148.159,38.768v-9.177h-10.904v9.177h-3.678V17.804h3.678v8.549h10.904v-8.549h3.678v20.963H148.159
		L148.159,38.768z"/>
</g>
<g>
	<path fill="#FFFFFF" d="M157.138,38.198c0-0.378,0.344-0.703,0.735-0.703c0.395,0,0.722,0.325,0.722,0.703
		c0,0.395-0.327,0.721-0.722,0.721C157.481,38.918,157.138,38.592,157.138,38.198z"/>
	<path fill="#FFFFFF" d="M161.018,38.771V27.848h0.936v10.923H161.018z"/>
	<path fill="#FFFFFF" d="M167.454,38.771V28.7h-3.57v-0.852h8.091V28.7h-3.57v10.071H167.454z"/>
</g>
<path fill="#FFFFFF" d="M33.895,17.803c-0.021,0-0.035-0.002-0.054-0.002c-5.636,0-10.233,4.469-10.468,10.049h10.973v10.904
	c5.55-0.266,9.985-4.85,9.985-10.463C44.332,22.524,39.654,17.831,33.895,17.803z"/>
<polygon fill="#FFFFFF" points="25.146,33.348 10.625,47.87 10.625,51.584 14.404,51.584 28.879,37.107 28.879,33.35 "/>
<polygon fill="#FFFFFF" points="10.6,30.553 5.301,35.852 26.375,35.854 31.674,30.553 "/>
<polygon fill="#FFFFFF" points="26.375,35.852 31.674,30.553 31.672,51.561 26.373,56.859 "/>
<path fill="#FFFFFF" d="M33.826,5.043c-12.681,0-22.979,10.155-23.228,22.773h5.071c0.25-9.821,8.272-17.712,18.154-17.712
	c10.041,0,18.178,8.139,18.178,18.178c0,9.875-7.875,17.89-17.687,18.151v5.075c12.606-0.263,22.749-10.558,22.749-23.229
	C57.067,15.449,46.662,5.043,33.826,5.043z"/>
<g>
	<path fill="#788F9B" d="M34.347,17.789c-0.021,0-0.035-0.002-0.054-0.002c-5.636,0-10.233,4.469-10.468,10.049h10.972V38.74
		c5.551-0.266,9.986-4.85,9.986-10.463C44.784,22.509,40.106,17.816,34.347,17.789z"/>
	<polygon fill="#788F9B" points="25.599,33.333 11.077,47.855 11.077,51.57 14.856,51.57 29.331,37.094 29.331,33.335 	"/>
	<polygon fill="#DD2C00" points="11.052,30.539 5.753,35.837 26.827,35.839 32.126,30.539 	"/>
	<polygon fill="#FF3D00" points="26.827,35.837 32.126,30.539 32.124,51.545 26.825,56.844 	"/>
	<g opacity="0.6" enable-background="new    ">
		<g>
			<defs>
				<polygon id="SVGID_1_" points="11.052,30.539 5.753,35.839 26.864,35.839 32.126,30.539 				"/>
			</defs>
			<clipPath id="SVGID_2_">
				<use xlink:href="#SVGID_1_"  overflow="visible"/>
			</clipPath>
			
				<linearGradient id="SVGID_3_" gradientUnits="userSpaceOnUse" x1="2971.4939" y1="1632.0664" x2="2959.8545" y2="1620.427" gradientTransform="matrix(-0.7071 -0.7071 -0.7071 0.7071 3273.0449 977.6481)">
				<stop  offset="0" style="stop-color:#FFFFFF;stop-opacity:0"/>
				<stop  offset="1" style="stop-color:#000000"/>
			</linearGradient>
			<polygon clip-path="url(#SVGID_2_)" fill="url(#SVGID_3_)" points="22.719,21.066 32.126,30.539 22.719,40.014 13.313,30.539 			
				"/>
		</g>
	</g>
	<path fill="#CFD8DC" d="M34.278,5.029c-12.68,0-22.979,10.155-23.228,22.773h5.072c0.25-9.821,8.273-17.712,18.154-17.712
		c10.041,0,18.178,8.139,18.178,18.178c0,9.875-7.875,17.89-17.686,18.152v5.076c12.606-0.264,22.749-10.559,22.749-23.229
		C57.52,15.434,47.114,5.029,34.278,5.029z"/>
</g>
</svg>
