<?xml version="1.0" encoding="utf-8"?>
<!-- Generator: Adobe Illustrator 16.0.0, SVG Export Plug-In . SVG Version: 6.00 Build 0)  -->
<!DOCTYPE svg PUBLIC "-//W3C//DTD SVG 1.1//EN" "http://www.w3.org/Graphics/SVG/1.1/DTD/svg11.dtd">
<svg version="1.1" id="Capa_1" xmlns="http://www.w3.org/2000/svg" xmlns:xlink="http://www.w3.org/1999/xlink" x="0px" y="0px"
	 width="258.574px" height="68.741px" viewBox="0 0 258.574 68.741" enable-background="new 0 0 258.574 68.741"
	 xml:space="preserve">
<g>
	<path fill="#37474F" d="M96.379,44.659l-8.015-20.402h4.068l6.18,16.487l6.179-16.487h4.068l-8.015,20.402H96.379z"/>
	<path fill="#37474F" d="M111.063,44.659V24.257h13.979v3.149h-10.4v5.262h10.187v3.151h-10.187v5.69h10.4v3.149H111.063z"/>
	<path fill="#37474F" d="M142.938,44.659l-10.646-14.59v14.59h-3.578V24.257h3.67l10.432,14.133V24.257h3.579v20.402H142.938z"/>
	<path fill="#37474F" d="M155.603,44.659V27.406h-6.179v-3.149h15.938v3.149h-6.18v17.253H155.603z"/>
	<path fill="#37474F" d="M168.391,36.584V24.257h3.64v12.236c0,3.242,1.805,5.352,5.201,5.352c3.395,0,5.199-2.109,5.199-5.352
		V24.257h3.641v12.327c0,5.048-2.906,8.442-8.84,8.442C171.327,45.026,168.391,41.632,168.391,36.584z"/>
	<path fill="#37474F" d="M202.071,44.659l-4.497-7.616h-3.579v7.616h-3.579V24.257h8.963c4.038,0,6.699,2.6,6.699,6.393
		c0,3.609-2.386,5.599-4.864,5.995l5.018,8.015H202.071z M202.407,30.619c0-1.957-1.469-3.213-3.487-3.213h-4.925v6.485h4.925
		C200.938,33.892,202.407,32.606,202.407,30.619z"/>
	<path fill="#37474F" d="M209.657,44.659V24.257h13.979v3.149h-10.4v5.262h10.187v3.151h-10.187v5.69h10.4v3.149H209.657z"/>
</g>
<g>
	<path fill="#90A4AE" d="M227.894,43.979c0-0.332,0.304-0.623,0.65-0.623c0.349,0,0.639,0.291,0.639,0.623
		c0,0.348-0.29,0.638-0.639,0.638C228.197,44.616,227.894,44.326,227.894,43.979z"/>
	<path fill="#90A4AE" d="M230.962,39.664c0-2.968,2.158-4.995,4.895-4.995c1.535,0,2.707,0.682,3.518,1.709l-0.694,0.448
		c-0.608-0.839-1.665-1.403-2.823-1.403c-2.259,0-4.025,1.722-4.025,4.241c0,2.49,1.767,4.242,4.025,4.242
		c1.158,0,2.215-0.564,2.823-1.404l0.709,0.435c-0.868,1.057-1.997,1.723-3.532,1.723C233.12,44.659,230.962,42.632,230.962,39.664z
		"/>
	<path fill="#90A4AE" d="M240.678,39.664c0-2.823,1.853-4.995,4.691-4.995c2.823,0,4.69,2.172,4.69,4.995s-1.867,4.995-4.69,4.995
		C242.53,44.659,240.678,42.487,240.678,39.664z M249.191,39.664c0-2.446-1.507-4.241-3.822-4.241c-2.331,0-3.822,1.795-3.822,4.241
		c0,2.433,1.491,4.242,3.822,4.242C247.685,43.906,249.191,42.097,249.191,39.664z"/>
</g>
<path fill="#304FFE" d="M54.301,25.931L38.136,9.767h-0.019c-0.641-0.662-1.535-1.077-2.528-1.077c-0.988,0-1.879,0.409-2.519,1.065
	h-0.016l-1.723,1.723L12.61,30.2l-4.258,4.258l4.258,4.258l4.258-4.258l18.721-18.721l0,0h0.002l14.452,14.451L54.301,25.931z"/>
<path fill="#448AFF" d="M58.569,30.2l-4.258,4.258l-18.721,18.72l0,0l-0.002,0.001L21.126,38.716l-4.258,4.258l16.176,16.176h0.019
	c0.641,0.662,1.535,1.076,2.528,1.076c0.988,0,1.879-0.41,2.519-1.064h0.016l1.723-1.725l18.722-18.721l4.258-4.258L58.569,30.2z"/>
<path fill="#37474F" d="M79.873,30.381l-4.874-4.874l-4.259-4.258L59.299,9.808c-0.55-0.579-1.321-0.944-2.183-0.944
	c-1.665,0-3.017,1.351-3.017,3.017c0,0.844,0.35,1.605,0.91,2.154l11.473,11.473l4.258,4.258l4.851,4.85l-4.851,4.851l-4.258,4.258
	L55.01,55.196c-0.561,0.547-0.91,1.309-0.91,2.154c0,1.666,1.352,3.016,3.017,3.016c0.861,0,1.633-0.365,2.183-0.944l11.441-11.44
	l4.259-4.259l4.874-4.874l4.233-4.234L79.873,30.381z"/>
<g>
	<defs>
		<path id="SVGID_1_" d="M58.569,30.2l-4.258,4.258l-18.721,18.72l0,0l-0.002,0.001L21.126,38.716l-4.258,4.258l16.176,16.176h0.019
			c0.641,0.662,1.535,1.076,2.528,1.076c0.988,0,1.879-0.41,2.519-1.064h0.016l1.723-1.725l18.722-18.721l4.258-4.258L58.569,30.2z"
			/>
	</defs>
	<clipPath id="SVGID_2_">
		<use xlink:href="#SVGID_1_"  overflow="visible"/>
	</clipPath>
	
		<linearGradient id="SVGID_3_" gradientUnits="userSpaceOnUse" x1="1768.3525" y1="3095.0576" x2="1755.6401" y2="3107.77" gradientTransform="matrix(0 1 -1 0 3122.7363 -1718.8242)">
		<stop  offset="0" style="stop-color:#FFFFFF;stop-opacity:0"/>
		<stop  offset="1" style="stop-color:#000000"/>
	</linearGradient>
	<rect x="16.868" y="38.716" clip-path="url(#SVGID_2_)" fill="url(#SVGID_3_)" width="14.531" height="14.531"/>
</g>
<g>
	<defs>
		<path id="SVGID_4_" d="M12.604,38.716l4.258-4.258l18.721-18.721l0,0h0.002L50.048,30.2l4.258-4.258L38.13,9.767h-0.019
			c-0.641-0.662-1.535-1.077-2.528-1.077c-0.988,0-1.879,0.409-2.519,1.065h-0.016l-1.723,1.723L12.604,30.2l-4.258,4.258
			L12.604,38.716z"/>
	</defs>
	<clipPath id="SVGID_5_">
		<use xlink:href="#SVGID_4_"  overflow="visible"/>
	</clipPath>
	
		<linearGradient id="SVGID_6_" gradientUnits="userSpaceOnUse" x1="1781.9883" y1="-1101.1929" x2="1769.2747" y2="-1088.4792" gradientTransform="matrix(0 -1 1 0 1144.6875 1801.377)">
		<stop  offset="0" style="stop-color:#FFFFFF;stop-opacity:0"/>
		<stop  offset="1" style="stop-color:#000000"/>
	</linearGradient>
	<rect x="39.774" y="15.669" clip-path="url(#SVGID_5_)" fill="url(#SVGID_6_)" width="14.531" height="14.531"/>
</g>
</svg>
