<?xml version="1.0" encoding="utf-8"?>
<!-- Generator: Adobe Illustrator 15.1.0, SVG Export Plug-In . SVG Version: 6.00 Build 0)  -->
<!DOCTYPE svg PUBLIC "-//W3C//DTD SVG 1.1//EN" "http://www.w3.org/Graphics/SVG/1.1/DTD/svg11.dtd">
<svg version="1.1" id="Capa_1" xmlns="http://www.w3.org/2000/svg" xmlns:xlink="http://www.w3.org/1999/xlink" x="0px" y="0px"
	 width="258.574px" height="68.742px" viewBox="0 0 258.574 68.742" enable-background="new 0 0 258.574 68.742"
	 xml:space="preserve">
<g>
	<path fill="#37474F" d="M96.379,44.66l-8.015-20.403h4.068l6.18,16.487l6.179-16.487h4.068l-8.015,20.403H96.379z"/>
	<path fill="#37474F" d="M111.063,44.66V24.257h13.979v3.149h-10.4v5.262h10.187v3.151h-10.187v5.69h10.4v3.148h-13.979V44.66z"/>
	<path fill="#37474F" d="M142.938,44.66l-10.646-14.591V44.66h-3.578V24.257h3.67l10.433,14.133V24.257h3.578V44.66H142.938z"/>
	<path fill="#37474F" d="M155.604,44.66V27.406h-6.18v-3.149h15.938v3.149h-6.18V44.66H155.604z"/>
	<path fill="#37474F" d="M168.391,36.583V24.257h3.641v12.237c0,3.241,1.805,5.352,5.201,5.352c3.395,0,5.199-2.109,5.199-5.352
		V24.257h3.641v12.327c0,5.049-2.906,8.442-8.84,8.442C171.327,45.026,168.391,41.632,168.391,36.583z"/>
	<path fill="#37474F" d="M202.07,44.66l-4.496-7.617h-3.579v7.617h-3.579V24.257h8.963c4.038,0,6.699,2.6,6.699,6.393
		c0,3.609-2.387,5.6-4.864,5.995l5.019,8.015H202.07L202.07,44.66z M202.407,30.619c0-1.957-1.47-3.213-3.487-3.213h-4.925v6.485
		h4.925C200.938,33.892,202.407,32.606,202.407,30.619z"/>
	<path fill="#37474F" d="M209.657,44.66V24.257h13.979v3.149h-10.4v5.262h10.187v3.151h-10.187v5.69h10.4v3.148h-13.979V44.66z"/>
</g>
<g>
	<path fill="#90A4AE" d="M227.895,43.979c0-0.332,0.304-0.623,0.649-0.623c0.349,0,0.64,0.291,0.64,0.623
		c0,0.349-0.291,0.638-0.64,0.638C228.197,44.617,227.895,44.326,227.895,43.979z"/>
	<path fill="#90A4AE" d="M230.962,39.664c0-2.968,2.158-4.995,4.896-4.995c1.535,0,2.707,0.682,3.518,1.709l-0.693,0.447
		c-0.608-0.839-1.666-1.402-2.824-1.402c-2.258,0-4.024,1.722-4.024,4.24c0,2.49,1.767,4.242,4.024,4.242
		c1.158,0,2.216-0.564,2.824-1.404l0.709,0.436c-0.869,1.057-1.998,1.723-3.533,1.723C233.12,44.66,230.962,42.632,230.962,39.664z"
		/>
	<path fill="#90A4AE" d="M240.678,39.664c0-2.822,1.854-4.995,4.691-4.995c2.822,0,4.689,2.172,4.689,4.995
		c0,2.823-1.867,4.996-4.689,4.996C242.529,44.66,240.678,42.487,240.678,39.664z M249.191,39.664c0-2.445-1.508-4.24-3.822-4.24
		c-2.331,0-3.822,1.795-3.822,4.24c0,2.434,1.491,4.242,3.822,4.242C247.686,43.906,249.191,42.097,249.191,39.664z"/>
</g>
<path fill="#448AFF" d="M53.361,25.306L37.195,9.142h-0.019c-0.643-0.661-1.535-1.076-2.528-1.076c-0.988,0-1.879,0.408-2.519,1.064
	h-0.016l-1.723,1.724L11.671,29.576l-4.26,4.258l4.26,4.258l4.258-4.258l18.721-18.721l0,0h0.002l14.452,14.451L53.361,25.306z"/>
<path fill="#448AFF" d="M57.63,29.576l-4.26,4.258L34.649,52.554l0,0h-0.002L20.187,38.091l-4.258,4.258l16.176,16.177h0.021
	c0.641,0.662,1.533,1.075,2.526,1.075c0.988,0,1.879-0.409,2.521-1.063h0.016l1.723-1.725l18.724-18.722l4.258-4.258L57.63,29.576z"
	/>
<path fill="#448AFF" d="M78.934,29.757l-4.874-4.875l-4.259-4.258L58.359,9.183c-0.55-0.578-1.321-0.943-2.183-0.943
	c-1.665,0-3.019,1.352-3.019,3.018c0,0.844,0.352,1.604,0.91,2.153l11.475,11.474l4.258,4.258l4.851,4.85l-4.851,4.852l-4.258,4.258
	L54.07,54.572c-0.561,0.547-0.91,1.309-0.91,2.154c0,1.666,1.354,3.016,3.019,3.016c0.859,0,1.633-0.365,2.183-0.943l11.441-11.439
	l4.259-4.26l4.874-4.873l4.233-4.234L78.934,29.757z"/>
</svg>
